<svg width="64" height="316" viewBox="0 0 64 316" fill="none" xmlns="http://www.w3.org/2000/svg">
<rect y="252" width="64" height="64" rx="6" fill="white"/>
<path d="M45.712 288.576L48 286.288L45.712 284L40 289.712L26.288 276L32 270.288L29.712 268L27.424 270.288L25.136 268L21.712 271.424L19.424 269.136L17.136 271.424L19.424 273.712L16 277.136L18.288 279.424L16 281.712L18.288 284L24 278.288L37.712 292L32 297.712L34.288 300L36.576 297.712L38.864 300L42.288 296.576L44.576 298.864L46.864 296.576L44.576 294.288L48 290.864L45.712 288.576Z" fill="#FF0101"/>
<rect y="168" width="64" height="64" rx="6" fill="white"/>
<path d="M37.1951 190.244C38.9122 190.244 40.3171 188.839 40.3171 187.122C40.3171 185.405 38.9122 184 37.1951 184C35.478 184 34.0732 185.405 34.0732 187.122C34.0732 188.839 35.478 190.244 37.1951 190.244ZM20.8049 200.39C16.4341 200.39 13 203.824 13 208.195C13 212.566 16.4341 216 20.8049 216C25.1756 216 28.6098 212.566 28.6098 208.195C28.6098 203.824 25.1756 200.39 20.8049 200.39ZM20.8049 213.659C17.839 213.659 15.3415 211.161 15.3415 208.195C15.3415 205.229 17.839 202.732 20.8049 202.732C23.7707 202.732 26.2683 205.229 26.2683 208.195C26.2683 211.161 23.7707 213.659 20.8049 213.659ZM29.8585 198.049L33.6049 194.302L34.8537 195.551C36.8829 197.58 39.5366 198.829 42.8146 198.829V195.707C40.4732 195.707 38.6 194.771 37.1951 193.366L34.2293 190.4C33.4488 189.776 32.6683 189.463 31.7317 189.463C30.7951 189.463 30.0146 189.776 29.5463 190.4L25.1756 194.771C24.5512 195.395 24.239 196.176 24.239 196.956C24.239 197.893 24.5512 198.673 25.1756 199.141L30.1707 203.512V211.317H33.2927V201.639L29.8585 198.049ZM42.6585 200.39C38.2878 200.39 34.8537 203.824 34.8537 208.195C34.8537 212.566 38.2878 216 42.6585 216C47.0293 216 50.4634 212.566 50.4634 208.195C50.4634 203.824 47.0293 200.39 42.6585 200.39ZM42.6585 213.659C39.6927 213.659 37.1951 211.161 37.1951 208.195C37.1951 205.229 39.6927 202.732 42.6585 202.732C45.6244 202.732 48.1219 205.229 48.1219 208.195C48.1219 211.161 45.6244 213.659 42.6585 213.659Z" fill="#FF0101"/>
<rect y="84" width="64" height="64" rx="6" fill="white"/>
<path d="M29.3334 110.667L25 115C25.4134 115.16 25.7467 115.36 26.0267 115.52C26.52 115.827 26.8134 116 27.56 116C28.3067 116 28.6 115.827 29.0934 115.52C29.7067 115.16 30.5334 114.667 32.0134 114.667C33.4934 114.667 34.32 115.16 34.92 115.52C35.4134 115.813 35.72 116 36.4534 116C37.1867 116 37.4934 115.827 37.9867 115.52C38.1467 115.427 38.3334 115.32 38.5334 115.213L29.9734 106.667C27.9067 104.6 26 103.987 22.6667 104V107.333C25.0934 107.32 26.52 107.853 28 109.333L29.3334 110.667ZM45.3334 122H45.3067H45.3334ZM23.1334 120.667C23.8667 120.667 24.1734 120.853 24.6667 121.147C25.2667 121.507 26.0934 122 27.5734 122C29.0534 122 29.88 121.507 30.48 121.147C30.9734 120.84 31.2667 120.667 32.0134 120.667C32.7467 120.667 33.0534 120.853 33.5467 121.147C34.1467 121.507 34.9734 122 36.4534 122C37.9334 122 38.76 121.507 39.36 121.147C39.8534 120.84 40.1467 120.667 40.8934 120.667C41.6267 120.667 41.9334 120.853 42.4267 121.147C43.0267 121.507 43.84 121.987 45.3067 122V119.333C44.5734 119.333 44.2667 119.147 43.7734 118.853C43.1734 118.493 42.3467 118 40.8667 118C39.3867 118 38.56 118.493 37.96 118.853C37.4667 119.16 37.16 119.333 36.4267 119.333C35.6934 119.333 35.3867 119.147 34.8934 118.853C34.2934 118.493 33.4667 118 31.9867 118C30.5067 118 29.68 118.493 29.08 118.853C28.5867 119.16 28.2934 119.333 27.5467 119.333C26.8134 119.333 26.5067 119.147 26.0134 118.853C25.4134 118.493 24.5867 118 23.1067 118C21.6267 118 20.8 118.493 20.2 118.853C19.7067 119.16 19.4134 119.333 18.6667 119.333V122C20.1467 122 20.9734 121.507 21.6 121.147C22.0934 120.84 22.4 120.667 23.1334 120.667ZM40.8934 124C39.4134 124 38.5867 124.493 37.9867 124.853C37.4934 125.16 37.1867 125.333 36.4534 125.333C35.72 125.333 35.4134 125.147 34.92 124.853C34.32 124.493 33.4934 124 32.0134 124C30.5334 124 29.7067 124.493 29.0934 124.853C28.6 125.16 28.3067 125.333 27.56 125.333C26.8134 125.333 26.52 125.16 26.0267 124.853C25.4267 124.493 24.6 124 23.12 124C21.64 124 20.8134 124.493 20.2 124.853C19.7067 125.16 19.4134 125.333 18.6667 125.333V128C20.1467 128 20.9734 127.507 21.5867 127.147C22.08 126.84 22.3867 126.667 23.12 126.667C23.8534 126.667 24.16 126.84 24.6534 127.147C25.2534 127.507 26.08 128 27.56 128C29.04 128 29.8667 127.507 30.48 127.147C30.9734 126.84 31.2667 126.667 32.0134 126.667C32.7467 126.667 33.0534 126.853 33.5467 127.147C34.1467 127.507 34.9734 128 36.4534 128C37.9334 128 38.7467 127.507 39.36 127.147C39.8534 126.84 40.1467 126.667 40.8934 126.667C41.6267 126.667 41.9334 126.853 42.4267 127.147C43.0267 127.507 43.8534 128 45.3334 128V125.333C44.5867 125.333 44.2934 125.16 43.8 124.853C43.2 124.493 42.3734 124 40.8934 124Z" fill="#FF0101"/>
<path d="M38 110.667C39.841 110.667 41.3334 109.174 41.3334 107.333C41.3334 105.492 39.841 104 38 104C36.1591 104 34.6667 105.492 34.6667 107.333C34.6667 109.174 36.1591 110.667 38 110.667Z" fill="#FF0101"/>
<rect width="64" height="64" rx="6" fill="white"/>
<path d="M32 22C34.2091 22 36 20.2091 36 18C36 15.7909 34.2091 14 32 14C29.7909 14 28 15.7909 28 18C28 20.2091 29.7909 22 32 22Z" fill="#FF0101"/>
<path d="M50 38V34C45.52 34 41.68 32.08 38.8 28.64L36.12 25.44C35.36 24.52 34.24 24 33.06 24H30.96C29.78 24 28.66 24.52 27.9 25.44L25.22 28.64C22.32 32.08 18.48 34 14 34V38C19.54 38 24.38 35.66 28 31.5V36L20.24 39.1C18.9 39.64 18 40.96 18 42.42C18 44.4 19.6 46 21.58 46H26V45C26 42.24 28.24 40 31 40H37C37.56 40 38 40.44 38 41C38 41.56 37.56 42 37 42H31C29.34 42 28 43.34 28 45V46H42.42C44.4 46 46 44.4 46 42.42C46 40.96 45.1 39.64 43.76 39.1L36 36V31.5C39.62 35.66 44.46 38 50 38Z" fill="#FF0101"/>
</svg>
